<?xml version="1.0" encoding="UTF-8"?>
<!DOCTYPE svg PUBLIC "-//W3C//DTD SVG 1.1//EN" "http://www.w3.org/Graphics/SVG/1.1/DTD/svg11.dtd">
<svg xmlns="http://www.w3.org/2000/svg" version="1.1" width="247px" height="121px" style="shape-rendering:geometricPrecision; text-rendering:geometricPrecision; image-rendering:optimizeQuality; fill-rule:evenodd; clip-rule:evenodd" xmlns:xlink="http://www.w3.org/1999/xlink">
<g><path style="opacity:1" fill="#010000" d="M -0.5,-0.5 C 81.8333,-0.5 164.167,-0.5 246.5,-0.5C 246.5,39.8333 246.5,80.1667 246.5,120.5C 164.167,120.5 81.8333,120.5 -0.5,120.5C -0.5,80.1667 -0.5,39.8333 -0.5,-0.5 Z"/></g>
<g><path style="opacity:1" fill="#d91e1e" d="M 174.5,30.5 C 181.497,29.2147 183.83,31.8813 181.5,38.5C 173.265,40.6083 170.932,37.9416 174.5,30.5 Z"/></g>
<g><path style="opacity:1" fill="#811212" d="M 36.5,35.5 C 34.1667,35.5 31.8333,35.5 29.5,35.5C 29.5,50.8333 29.5,66.1667 29.5,81.5C 28.5037,66.0089 28.1704,50.3422 28.5,34.5C 31.3854,34.1936 34.0521,34.5269 36.5,35.5 Z"/></g>
<g><path style="opacity:1" fill="#dc1e1e" d="M 36.5,35.5 C 42.4388,45.1268 48.4388,54.7935 54.5,64.5C 60.2746,54.6015 66.2746,44.9348 72.5,35.5C 74.8333,35.5 77.1667,35.5 79.5,35.5C 79.5,50.8333 79.5,66.1667 79.5,81.5C 77.1667,81.5 74.8333,81.5 72.5,81.5C 72.8319,71.4778 72.4985,61.4778 71.5,51.5C 70.8933,51.6236 70.56,51.9569 70.5,52.5C 70.1667,53.1667 69.8333,53.8333 69.5,54.5C 64.8559,61.1061 60.6893,68.1061 57,75.5C 55.3333,76.8333 53.6667,76.8333 52,75.5C 47.7255,67.9357 43.2255,60.6024 38.5,53.5C 38.6309,52.6236 38.2975,51.9569 37.5,51.5C 36.5015,61.4778 36.1681,71.4778 36.5,81.5C 34.1667,81.5 31.8333,81.5 29.5,81.5C 29.5,66.1667 29.5,50.8333 29.5,35.5C 31.8333,35.5 34.1667,35.5 36.5,35.5 Z"/></g>
<g><path style="opacity:1" fill="#6d0f0f" d="M 72.5,35.5 C 74.9479,34.5269 77.6146,34.1936 80.5,34.5C 80.8296,50.3422 80.4963,66.0089 79.5,81.5C 79.5,66.1667 79.5,50.8333 79.5,35.5C 77.1667,35.5 74.8333,35.5 72.5,35.5 Z"/></g>
<g><path style="opacity:1" fill="#da1e1e" d="M 90.5,71.5 C 89.2388,66.1753 89.2388,60.842 90.5,55.5C 95.7972,47.0026 103.464,43.8359 113.5,46C 127.19,52.2214 130.357,62.0548 123,75.5C 116.515,81.1142 109.015,82.9476 100.5,81C 95.98,78.9777 92.6467,75.811 90.5,71.5 Z"/></g>
<g><path style="opacity:1" fill="#d11d1d" d="M 129.5,45.5 C 133.007,44.9935 136.174,45.6602 139,47.5C 142.075,55.3138 145.409,62.9805 149,70.5C 152.179,62.8147 155.512,55.1481 159,47.5C 161.892,45.3271 165.059,44.9937 168.5,46.5C 163.5,57.8333 158.5,69.1667 153.5,80.5C 150.5,81.8333 147.5,81.8333 144.5,80.5C 139.189,68.8869 134.189,57.2203 129.5,45.5 Z"/></g>
<g><path style="opacity:1" fill="#b91919" d="M 180.5,81.5 C 180.5,69.8333 180.5,58.1667 180.5,46.5C 178.5,46.5 176.5,46.5 174.5,46.5C 174.5,58.1667 174.5,69.8333 174.5,81.5C 173.505,69.6783 173.172,57.6783 173.5,45.5C 176.167,45.5 178.833,45.5 181.5,45.5C 181.828,57.6783 181.495,69.6783 180.5,81.5 Z"/></g>
<g><path style="opacity:1" fill="#e4201f" d="M 180.5,81.5 C 178.5,81.5 176.5,81.5 174.5,81.5C 174.5,69.8333 174.5,58.1667 174.5,46.5C 176.5,46.5 178.5,46.5 180.5,46.5C 180.5,58.1667 180.5,69.8333 180.5,81.5 Z"/></g>
<g><path style="opacity:1" fill="#d01d1d" d="M 186.5,45.5 C 189.777,45.2161 192.943,45.5495 196,46.5C 199.794,54.7169 203.294,63.0503 206.5,71.5C 209.997,63.1717 213.497,54.8383 217,46.5C 219.719,45.5562 222.552,45.2229 225.5,45.5C 220.359,59.7477 214.526,73.7477 208,87.5C 205.118,92.4422 200.785,94.7756 195,94.5C 192.37,94.536 189.87,94.036 187.5,93C 186.049,89.972 186.716,87.472 189.5,85.5C 192.208,87.4357 195.208,87.9357 198.5,87C 200.152,85.53 201.152,83.6967 201.5,81.5C 197.606,69.045 192.606,57.045 186.5,45.5 Z"/></g>
<g><path style="opacity:1" fill="#971515" d="M 70.5,52.5 C 70.56,51.9569 70.8933,51.6236 71.5,51.5C 72.4985,61.4778 72.8319,71.4778 72.5,81.5C 72.1667,81.5 71.8333,81.5 71.5,81.5C 71.8271,71.6522 71.4938,61.9856 70.5,52.5 Z"/></g>
<g><path style="opacity:1" fill="#871212" d="M 38.5,53.5 C 37.8333,62.8333 37.1667,72.1667 36.5,81.5C 36.1681,71.4778 36.5015,61.4778 37.5,51.5C 38.2975,51.9569 38.6309,52.6236 38.5,53.5 Z"/></g>
<g><path style="opacity:1" fill="#290605" d="M 70.5,52.5 C 71.4938,61.9856 71.8271,71.6522 71.5,81.5C 70.8333,72.5 70.1667,63.5 69.5,54.5C 69.8333,53.8333 70.1667,53.1667 70.5,52.5 Z"/></g>
<g><path style="opacity:1" fill="#0d0201" d="M 104.5,52.5 C 115.588,52.5725 119.921,57.9058 117.5,68.5C 114.286,73.9376 109.62,75.771 103.5,74C 97.8232,70.3637 95.9899,65.197 98,58.5C 100.037,56.2941 102.203,54.2941 104.5,52.5 Z"/></g>
<g><path style="opacity:1" fill="#6c0f10" d="M 90.5,55.5 C 89.2388,60.842 89.2388,66.1753 90.5,71.5C 88.9666,69.3655 88.2999,66.8655 88.5,64C 88.3603,60.8502 89.027,58.0169 90.5,55.5 Z"/></g>
</svg>
